
<svg display="none" xmlns="http://www.w3.org/2000/svg">
  <symbol viewBox="0 0 24 24" id="twitter">
    <g opacity="0.6">
    <path d="M22.5 5.77258C21.7271 6.10051 20.8978 6.32292 20.0264 6.42221C20.9161 5.91205 21.5972 5.10287 21.92 4.14164C21.0854 4.61408 20.1642 4.95713 19.1826 5.14309C18.3966 4.34019 17.2785 3.84009 16.0384 3.84009C13.6593 3.84009 11.7303 5.68715 11.7303 7.96394C11.7303 8.28685 11.7683 8.60223 11.8418 8.90382C8.26201 8.73165 5.08768 7.08941 2.96314 4.59397C2.59176 5.20213 2.38049 5.91077 2.38049 6.66721C2.38049 8.09839 3.14161 9.36117 4.2964 10.1C3.5904 10.0774 2.92639 9.89141 2.34508 9.5823V9.63381C2.34508 11.6317 3.83056 13.299 5.80024 13.6785C5.43936 13.7715 5.05882 13.823 4.66514 13.823C4.38696 13.823 4.11794 13.7966 3.85417 13.7464C4.40267 15.3861 5.99315 16.5785 7.87756 16.6112C6.40388 17.7169 4.54573 18.3741 2.52749 18.3741C2.17976 18.3741 1.83724 18.354 1.5 18.3176C3.40671 19.4899 5.67036 20.1734 8.10327 20.1734C16.028 20.1734 20.3597 13.8884 20.3597 8.43766L20.3453 7.90365C21.1917 7.32561 21.9239 6.59937 22.5 5.77258Z" fill="white"/>
    </g>
  </symbol>

  <symbol viewBox="0 0 24 24" id="facebook">
    <g opacity="0.6">
    <path d="M17.5629 1.00458L14.7856 1C11.6655 1 9.64909 3.12509 9.64909 6.41423V8.91055H6.85668C6.61538 8.91055 6.41998 9.1115 6.41998 9.35937V12.9763C6.41998 13.2241 6.61561 13.4249 6.85668 13.4249H9.64909V22.5514C9.64909 22.7993 9.84449 23 10.0858 23H13.7291C13.9704 23 14.1658 22.799 14.1658 22.5514V13.4249H17.4308C17.6721 13.4249 17.8675 13.2241 17.8675 12.9763L17.8688 9.35937C17.8688 9.24036 17.8227 9.12638 17.7409 9.04215C17.6592 8.95793 17.5477 8.91055 17.4319 8.91055H14.1658V6.79439C14.1658 5.77728 14.4017 5.26094 15.6916 5.26094L17.5625 5.26025C17.8035 5.26025 17.9989 5.0593 17.9989 4.81166V1.45317C17.9989 1.20576 17.8038 1.00504 17.5629 1.00458Z" fill="white"/>
    </g>
  </symbol>

  <symbol viewBox="0 0 24 24" id="instagram">
    <g opacity="0.6">
    <path d="M21.9804 7.88005C21.9335 6.81738 21.7617 6.0868 21.5155 5.45374C21.2616 4.78176 20.8709 4.18014 20.359 3.68002C19.8589 3.1721 19.2533 2.77743 18.5891 2.52745C17.9524 2.28127 17.2256 2.10943 16.1629 2.06257C15.0923 2.01175 14.7524 2 12.0371 2C9.32169 2 8.98182 2.01175 7.91517 2.05861C6.8525 2.10546 6.12192 2.27746 5.48901 2.52348C4.81688 2.77743 4.21527 3.16814 3.71514 3.68002C3.20723 4.18014 2.81271 4.78573 2.56257 5.44992C2.3164 6.0868 2.14455 6.81341 2.0977 7.87609C2.04688 8.9467 2.03513 9.28658 2.03513 12.002C2.03513 14.7173 2.04688 15.0572 2.09373 16.1239C2.14058 17.1865 2.31258 17.9171 2.55876 18.5502C2.81271 19.2221 3.20723 19.8238 3.71514 20.3239C4.21527 20.8318 4.82085 21.2265 5.48504 21.4765C6.12192 21.7226 6.84853 21.8945 7.91136 21.9413C8.97785 21.9883 9.31788 21.9999 12.0332 21.9999C14.7486 21.9999 15.0885 21.9883 16.1551 21.9413C17.2178 21.8945 17.9484 21.7226 18.5813 21.4765C19.9254 20.9568 20.9881 19.8941 21.5077 18.5502C21.7538 17.9133 21.9258 17.1865 21.9726 16.1239C22.0195 15.0572 22.0312 14.7173 22.0312 12.002C22.0312 9.28658 22.0273 8.9467 21.9804 7.88005ZM20.1794 16.0457C20.1363 17.0225 19.9723 17.5499 19.8355 17.9015C19.4994 18.7728 18.8079 19.4643 17.9366 19.8004C17.585 19.9372 17.0538 20.1012 16.0808 20.1441C15.0259 20.1911 14.7095 20.2027 12.041 20.2027C9.37252 20.2027 9.05217 20.1911 8.0011 20.1441C7.02434 20.1012 6.4969 19.9372 6.14527 19.8004C5.71168 19.6402 5.31701 19.3862 4.99667 19.0541C4.66457 18.7298 4.41062 18.3391 4.25037 17.9055C4.11362 17.5539 3.94956 17.0225 3.90667 16.0497C3.85967 14.9948 3.84807 14.6783 3.84807 12.0097C3.84807 9.34122 3.85967 9.02087 3.90667 7.96995C3.94956 6.99319 4.11362 6.46575 4.25037 6.11412C4.41062 5.68038 4.66457 5.28586 5.00064 4.96536C5.3248 4.63327 5.7155 4.37931 6.14923 4.21921C6.50087 4.08247 7.03228 3.9184 8.00506 3.87537C9.05996 3.82851 9.37648 3.81676 12.0448 3.81676C14.7173 3.81676 15.0337 3.82851 16.0848 3.87537C17.0615 3.9184 17.589 4.08247 17.9406 4.21921C18.3742 4.37931 18.7689 4.63327 19.0892 4.96536C19.4213 5.28967 19.6753 5.68038 19.8355 6.11412C19.9723 6.46575 20.1363 6.99701 20.1794 7.96995C20.2262 9.02484 20.238 9.34122 20.238 12.0097C20.238 14.6783 20.2262 14.9908 20.1794 16.0457Z" fill="white"/>
    <path d="M12.0371 6.86423C9.20066 6.86423 6.89934 9.1654 6.89934 12.002C6.89934 14.8385 9.20066 17.1397 12.0371 17.1397C14.8736 17.1397 17.1748 14.8385 17.1748 12.002C17.1748 9.1654 14.8736 6.86423 12.0371 6.86423ZM12.0371 15.3347C10.1969 15.3347 8.70435 13.8422 8.70435 12.002C8.70435 10.1617 10.1969 8.66924 12.0371 8.66924C13.8773 8.66924 15.3698 10.1617 15.3698 12.002C15.3698 13.8422 13.8773 15.3347 12.0371 15.3347Z" fill="white"/>
    <path d="M18.5775 6.6611C18.5775 7.32346 18.0405 7.86053 17.3779 7.86053C16.7156 7.86053 16.1785 7.32346 16.1785 6.6611C16.1785 5.99858 16.7156 5.46167 17.3779 5.46167C18.0405 5.46167 18.5775 5.99858 18.5775 6.6611Z" fill="white"/>
    </g>
  </symbol>

  <symbol viewBox="0 0 24 24" id="linkedin">
    <g opacity="0.6">
    <path d="M21.995 22L22 21.9992V14.6642C22 11.0758 21.2275 8.31167 17.0325 8.31167C15.0158 8.31167 13.6625 9.41833 13.11 10.4675H13.0517V8.64667H9.07416V21.9992H13.2158V15.3875C13.2158 13.6467 13.5458 11.9633 15.7017 11.9633C17.8258 11.9633 17.8575 13.95 17.8575 15.4992V22H21.995Z" fill="white"/>
    <path d="M2.32999 8.6475H6.47666V22H2.32999V8.6475Z" fill="white"/>
    <path d="M4.40167 2C3.07583 2 2 3.07583 2 4.40167C2 5.7275 3.07583 6.82583 4.40167 6.82583C5.7275 6.82583 6.80333 5.7275 6.80333 4.40167C6.8025 3.07583 5.72667 2 4.40167 2Z" fill="white"/>
    </g>
  </symbol>

  <symbol viewBox="0 0 16 17" id="home">
    <path fill-rule="evenodd" clip-rule="evenodd" d="M8.52262 3.28077C8.18032 3.18809 7.81953 3.18809 7.47723 3.28077C7.12087 3.37726 6.77527 3.63005 5.78974 4.39657L4.05641 5.74472C3.42211 6.23806 3.20915 6.41103 3.05862 6.61456C2.91396 6.81015 2.80619 7.03049 2.74062 7.26476C2.67238 7.50853 2.66659 7.78283 2.66659 8.58639V12.9996C2.66659 13.5133 2.67383 13.6224 2.6953 13.6932C2.75993 13.9062 2.92667 14.073 3.13974 14.1376C3.21052 14.1591 3.31957 14.1663 3.83326 14.1663H4.24993C4.33522 14.1663 4.35375 14.1661 4.36597 14.1655C4.70844 14.1487 4.9823 13.8748 4.99912 13.5323C4.99972 13.5201 4.99993 13.5016 4.99993 13.4163V11.4996C4.99993 9.84278 6.34307 8.49963 7.99993 8.49963C9.65678 8.49963 10.9999 9.84278 10.9999 11.4996V13.4163C10.9999 13.5016 11.0001 13.5201 11.0007 13.5323C11.0176 13.8748 11.2914 14.1487 11.6339 14.1655C11.6461 14.1661 11.6646 14.1663 11.7499 14.1663H12.1666C12.6803 14.1663 12.7893 14.1591 12.8601 14.1376C13.0732 14.073 13.2399 13.9062 13.3046 13.6932C13.326 13.6224 13.3333 13.5133 13.3333 12.9996V8.58639C13.3333 7.78283 13.3275 7.50853 13.2592 7.26476C13.1937 7.03049 13.0859 6.81015 12.9412 6.61456C12.7907 6.41103 12.5777 6.23806 11.9434 5.74472L10.2101 4.39657C9.22458 3.63005 8.87898 3.37726 8.52262 3.28077ZM7.12877 1.99378C7.69927 1.83931 8.30058 1.83931 8.87108 1.99378C9.51994 2.16946 10.0893 2.61272 10.9153 3.25581C10.9525 3.28484 10.9903 3.31427 11.0287 3.3441L12.762 4.69225C12.786 4.71089 12.8096 4.72926 12.833 4.74739C13.3692 5.16417 13.7401 5.45248 14.0132 5.8217C14.2543 6.14768 14.4339 6.51491 14.5432 6.90536C14.667 7.34759 14.6668 7.81741 14.6666 8.49656C14.6666 8.5261 14.6666 8.55604 14.6666 8.58639V12.9996C14.6666 13.0279 14.6666 13.0558 14.6667 13.0835C14.6671 13.4644 14.6675 13.7933 14.5805 14.0802C14.3866 14.7194 13.8864 15.2196 13.2472 15.4135C12.9603 15.5005 12.6313 15.5002 12.2505 15.4997C12.2228 15.4997 12.1948 15.4996 12.1666 15.4996L11.736 15.4996C11.6725 15.4996 11.618 15.4997 11.5685 15.4972C10.541 15.4468 9.71948 14.6252 9.669 13.5978C9.66657 13.5482 9.66658 13.4937 9.66659 13.4303L9.66659 11.4996C9.66659 10.5792 8.9204 9.83297 7.99993 9.83297C7.07945 9.83297 6.33326 10.5792 6.33326 11.4996L6.33326 13.4303C6.33327 13.4937 6.33329 13.5482 6.33085 13.5978C6.28038 14.6252 5.4588 15.4468 4.4314 15.4972C4.38184 15.4997 4.32733 15.4996 4.26389 15.4996L3.83326 15.4996C3.80502 15.4996 3.77706 15.4997 3.74938 15.4997C3.36853 15.5002 3.03959 15.5005 2.75269 15.4135C2.11349 15.2196 1.61328 14.7194 1.41938 14.0802C1.33235 13.7933 1.33274 13.4644 1.33319 13.0835C1.33323 13.0558 1.33326 13.0279 1.33326 12.9996V8.58639C1.33326 8.55604 1.33325 8.5261 1.33324 8.49655C1.33301 7.81741 1.33285 7.34759 1.45664 6.90536C1.56593 6.51491 1.74554 6.14768 1.98664 5.8217C2.25972 5.45248 2.63067 5.16416 3.1669 4.74739C3.19022 4.72926 3.21386 4.71089 3.23782 4.69225L4.97115 3.3441C5.00951 3.31427 5.04732 3.28483 5.0846 3.25581C5.91059 2.61272 6.47991 2.16946 7.12877 1.99378Z" fill="white"/>
  </symbol>

  <symbol viewBox="0 0 16 14" id="hearts">
    <path fill-rule="evenodd" clip-rule="evenodd" d="M7.99959 12.2717C4.93355 10.5255 3.22351 8.7898 2.3966 7.28385C1.55026 5.74252 1.6241 4.44434 2.09374 3.52298C3.05905 1.62916 5.80412 1.02357 7.47663 3.13889L7.99955 3.80026L8.52251 3.13893C10.1953 1.02352 12.9405 1.6292 13.9058 3.52298C14.3755 4.44433 14.4493 5.7425 13.6029 7.28384C12.7759 8.78979 11.0658 10.5255 7.99959 12.2717ZM7.99961 1.7375C5.64681 -0.498237 2.17588 0.42579 0.905824 2.91747C0.208796 4.28495 0.199274 6.05236 1.22787 7.9256C2.24733 9.78222 4.27994 11.7419 7.67709 13.6196L7.99958 13.7979L8.32207 13.6196C11.7193 11.742 13.752 9.78223 14.7716 7.92562C15.8002 6.05239 15.7908 4.28496 15.0937 2.91747C13.8237 0.425742 10.3526 -0.498204 7.99961 1.7375Z" fill="#7772F1"/>
  </symbol>

  <symbol viewBox="0 0 16 17" id="chevron">
    <g opacity="0.6">
    <path fill-rule="evenodd" clip-rule="evenodd" d="M5.52867 3.36201C5.78902 3.10166 6.21113 3.10166 6.47148 3.36201L11.1381 8.02868C11.3985 8.28903 11.3985 8.71114 11.1381 8.97149L6.47148 13.6382C6.21113 13.8985 5.78902 13.8985 5.52867 13.6382C5.26832 13.3778 5.26832 12.9557 5.52867 12.6953L9.72393 8.50008L5.52867 4.30482C5.26832 4.04447 5.26832 3.62236 5.52867 3.36201Z" fill="white"/>
    </g>
  </symbol>

  <symbol viewBox="0 0 14 11" id="checked">
    <path fill-rule="evenodd" clip-rule="evenodd" d="M13.4714 1.02864C13.7317 1.28899 13.7317 1.7111 13.4714 1.97145L5.47139 9.97145C5.21104 10.2318 4.78893 10.2318 4.52859 9.97145L0.528584 5.97145C0.268235 5.7111 0.268235 5.28899 0.528584 5.02864C0.788935 4.76829 1.21104 4.76829 1.47139 5.02864L4.99999 8.55723L12.5286 1.02864C12.7889 0.768287 13.211 0.768287 13.4714 1.02864Z" fill="#7772F1"/>
  </symbol>

  <symbol viewBox="0 0 40 40" id="orange-circle-full" fill="#fff">
    <circle cx="20" cy="20" r="18" stroke="#F89828" stroke-width="4"/>
  </symbol>

  <symbol viewBox="0 0 40 40" id="ruby-circle" fill="#fff">
    <g clip-path="url(#clip0_2_130)">
    <circle opacity="0.3" cx="20" cy="20" r="18" stroke="#F52F6E" stroke-width="4"/>
    <path d="M20 36C28.8366 36 36 28.8366 36 20C36 11.1634 28.8366 4 20 4V0C31.0457 0 40 8.9543 40 20C40 31.0457 31.0457 40 20 40C8.9543 40 0 31.0457 0 20C0 14.2928 2.39055 9.14386 6.22496 5.5L8.72317 8.64953C5.80608 11.5478 4 15.563 4 20C4 28.8366 11.1634 36 20 36Z" fill="#F52F6E"/>
    <!--  -->
    </g>
    <defs>
    <clipPath id="clip0_2_130">
    <rect width="40" height="40" fill="white"/>
    </clipPath>
    </defs>
  </symbol>

  <symbol viewBox="0 0 40 40" id="green-circle" fill="#fff">
    <g clip-path="url(#clip0_2_317)">
    <circle cx="20" cy="20" r="18" stroke="#03CEA4" stroke-width="4"/>
    </g>
    <defs>
    <clipPath id="clip0_2_317">
    <rect width="40" height="40" fill="white"/>
    </clipPath>
    </defs>
  </symbol>

  <symbol viewBox="0 0 40 40" id="orange-circle" fill="#fff">
    <g clip-path="url(#clip0_2_310)">
    <circle opacity="0.3" cx="20" cy="20" r="18" stroke="#F89828" stroke-width="4"/>
    <path d="M20 36C28.8366 36 36 28.8366 36 20C36 11.1634 28.8366 4 20 4V0C31.0457 0 40 8.9543 40 20C40 31.0457 31.0457 40 20 40C8.9543 40 0 31.0457 0 20C0 14.2928 2.39055 9.14386 6.22496 5.5L8.72317 8.64953C5.80608 11.5478 4 15.563 4 20C4 28.8366 11.1634 36 20 36Z" fill="#F89828"/>
    </g>
    <defs>
    <clipPath id="clip0_2_310">
    <rect width="40" height="40" fill="white"/>
    </clipPath>
    </defs>
  </symbol>

  <symbol viewBox="0 0 18 12" id="arrows">
    <path fill-rule="evenodd" clip-rule="evenodd" d="M6.20711 11.2071C5.81658 11.5976 5.18342 11.5976 4.79289 11.2071L0.292892 6.70711C-0.0976315 6.31658 -0.0976315 5.68342 0.292892 5.29289L4.79289 0.792893C5.18342 0.402369 5.81658 0.402369 6.20711 0.792893C6.59763 1.18342 6.59763 1.81658 6.20711 2.20711L3.41421 5L17 5C17.5523 5 18 5.44772 18 6C18 6.55228 17.5523 7 17 7L3.41421 7L6.20711 9.79289C6.59763 10.1834 6.59763 10.8166 6.20711 11.2071Z" fill="#424551"/>
  </symbol>

  <symbol viewBox="0 0 40 40" id="blue-circle" fill="#fff">
    <g clip-path="url(#clip0_2_106)">
  <circle cx="20" cy="20" r="18" stroke="#5A87FC" stroke-width="4"/>
  </g>
  <defs>
  <clipPath id="clip0_2_106">
  <rect width="40" height="40" fill="white"/>
  </clipPath>
  </defs>
  </symbol>
</svg>
